<mxfile host="app.diagrams.net" agent="Mozilla/5.0 (Windows NT 10.0; Win64; x64) AppleWebKit/537.36 (KHTML, like Gecko) Chrome/126.0.0.0 Safari/537.36 OPR/112.0.0.0" version="24.7.13">
  <diagram name="Страница — 1" id="0OpV4Xa3QXV75NDmF0c9">
    <mxGraphModel dx="1236" dy="634" grid="1" gridSize="10" guides="1" tooltips="1" connect="1" arrows="1" fold="1" page="1" pageScale="1" pageWidth="827" pageHeight="1169" math="0" shadow="0">
      <root>
        <mxCell id="0" />
        <mxCell id="1" parent="0" />
        <mxCell id="Rg9wagiexUnOvc4vePpl-20" value="Shapes" style="shape=module;align=left;spacingLeft=20;align=center;verticalAlign=top;whiteSpace=wrap;html=1;" vertex="1" parent="1">
          <mxGeometry x="10" y="190" width="1000" height="370" as="geometry" />
        </mxCell>
        <mxCell id="Rg9wagiexUnOvc4vePpl-1" value="main" style="shape=module;align=left;spacingLeft=20;align=center;verticalAlign=top;whiteSpace=wrap;html=1;" vertex="1" parent="1">
          <mxGeometry x="20" y="10" width="260" height="140" as="geometry" />
        </mxCell>
        <mxCell id="Rg9wagiexUnOvc4vePpl-2" value="App" style="swimlane;fontStyle=1;align=center;verticalAlign=top;childLayout=stackLayout;horizontal=1;startSize=26;horizontalStack=0;resizeParent=1;resizeParentMax=0;resizeLast=0;collapsible=1;marginBottom=0;whiteSpace=wrap;html=1;" vertex="1" parent="1">
          <mxGeometry x="70" y="50" width="160" height="34" as="geometry" />
        </mxCell>
        <mxCell id="Rg9wagiexUnOvc4vePpl-4" value="" style="line;strokeWidth=1;fillColor=none;align=left;verticalAlign=middle;spacingTop=-1;spacingLeft=3;spacingRight=3;rotatable=0;labelPosition=right;points=[];portConstraint=eastwest;strokeColor=inherit;" vertex="1" parent="Rg9wagiexUnOvc4vePpl-2">
          <mxGeometry y="26" width="160" height="8" as="geometry" />
        </mxCell>
        <mxCell id="Rg9wagiexUnOvc4vePpl-6" value="CommandHandler" style="shape=module;align=left;spacingLeft=20;align=center;verticalAlign=top;whiteSpace=wrap;html=1;" vertex="1" parent="1">
          <mxGeometry x="320" y="10" width="330" height="170" as="geometry" />
        </mxCell>
        <mxCell id="Rg9wagiexUnOvc4vePpl-10" value="CommandHandler" style="swimlane;fontStyle=1;align=center;verticalAlign=top;childLayout=stackLayout;horizontal=1;startSize=26;horizontalStack=0;resizeParent=1;resizeParentMax=0;resizeLast=0;collapsible=1;marginBottom=0;whiteSpace=wrap;html=1;" vertex="1" parent="1">
          <mxGeometry x="370" y="50" width="240" height="86" as="geometry" />
        </mxCell>
        <mxCell id="Rg9wagiexUnOvc4vePpl-11" value="- shapesStore: ShapesStore" style="text;strokeColor=none;fillColor=none;align=left;verticalAlign=top;spacingLeft=4;spacingRight=4;overflow=hidden;rotatable=0;points=[[0,0.5],[1,0.5]];portConstraint=eastwest;whiteSpace=wrap;html=1;" vertex="1" parent="Rg9wagiexUnOvc4vePpl-10">
          <mxGeometry y="26" width="240" height="26" as="geometry" />
        </mxCell>
        <mxCell id="Rg9wagiexUnOvc4vePpl-12" value="" style="line;strokeWidth=1;fillColor=none;align=left;verticalAlign=middle;spacingTop=-1;spacingLeft=3;spacingRight=3;rotatable=0;labelPosition=right;points=[];portConstraint=eastwest;strokeColor=inherit;" vertex="1" parent="Rg9wagiexUnOvc4vePpl-10">
          <mxGeometry y="52" width="240" height="8" as="geometry" />
        </mxCell>
        <mxCell id="Rg9wagiexUnOvc4vePpl-13" value="+ Handle(in: istream, out: ostream): void" style="text;strokeColor=none;fillColor=none;align=left;verticalAlign=top;spacingLeft=4;spacingRight=4;overflow=hidden;rotatable=0;points=[[0,0.5],[1,0.5]];portConstraint=eastwest;whiteSpace=wrap;html=1;" vertex="1" parent="Rg9wagiexUnOvc4vePpl-10">
          <mxGeometry y="60" width="240" height="26" as="geometry" />
        </mxCell>
        <mxCell id="Rg9wagiexUnOvc4vePpl-14" value="" style="endArrow=diamondThin;endFill=0;endSize=24;html=1;rounded=0;" edge="1" parent="1" source="Rg9wagiexUnOvc4vePpl-16" target="Rg9wagiexUnOvc4vePpl-10">
          <mxGeometry width="160" relative="1" as="geometry">
            <mxPoint x="230" y="160" as="sourcePoint" />
            <mxPoint x="390" y="160" as="targetPoint" />
          </mxGeometry>
        </mxCell>
        <mxCell id="Rg9wagiexUnOvc4vePpl-16" value="Picture" style="swimlane;fontStyle=1;align=center;verticalAlign=top;childLayout=stackLayout;horizontal=1;startSize=26;horizontalStack=0;resizeParent=1;resizeParentMax=0;resizeLast=0;collapsible=1;marginBottom=0;whiteSpace=wrap;html=1;" vertex="1" parent="1">
          <mxGeometry x="70" y="230" width="400" height="292" as="geometry" />
        </mxCell>
        <mxCell id="Rg9wagiexUnOvc4vePpl-17" value="- shapes : vector&amp;lt;Shape&amp;gt;" style="text;strokeColor=none;fillColor=none;align=left;verticalAlign=top;spacingLeft=4;spacingRight=4;overflow=hidden;rotatable=0;points=[[0,0.5],[1,0.5]];portConstraint=eastwest;whiteSpace=wrap;html=1;" vertex="1" parent="Rg9wagiexUnOvc4vePpl-16">
          <mxGeometry y="26" width="400" height="24" as="geometry" />
        </mxCell>
        <mxCell id="Rg9wagiexUnOvc4vePpl-18" value="" style="line;strokeWidth=1;fillColor=none;align=left;verticalAlign=middle;spacingTop=-1;spacingLeft=3;spacingRight=3;rotatable=0;labelPosition=right;points=[];portConstraint=eastwest;strokeColor=inherit;" vertex="1" parent="Rg9wagiexUnOvc4vePpl-16">
          <mxGeometry y="50" width="400" height="8" as="geometry" />
        </mxCell>
        <mxCell id="Rg9wagiexUnOvc4vePpl-19" value="+ AddShape(id: string, color: string, type: string, params: string[]&lt;span style=&quot;background-color: initial;&quot;&gt;) : void&lt;/span&gt;" style="text;strokeColor=none;fillColor=none;align=left;verticalAlign=top;spacingLeft=4;spacingRight=4;overflow=hidden;rotatable=0;points=[[0,0.5],[1,0.5]];portConstraint=eastwest;whiteSpace=wrap;html=1;" vertex="1" parent="Rg9wagiexUnOvc4vePpl-16">
          <mxGeometry y="58" width="400" height="26" as="geometry" />
        </mxCell>
        <mxCell id="Rg9wagiexUnOvc4vePpl-26" value="+ MoveShape(id: string, dx: double, dy: double) : void" style="text;strokeColor=none;fillColor=none;align=left;verticalAlign=top;spacingLeft=4;spacingRight=4;overflow=hidden;rotatable=0;points=[[0,0.5],[1,0.5]];portConstraint=eastwest;whiteSpace=wrap;html=1;" vertex="1" parent="Rg9wagiexUnOvc4vePpl-16">
          <mxGeometry y="84" width="400" height="26" as="geometry" />
        </mxCell>
        <mxCell id="Rg9wagiexUnOvc4vePpl-31" value="+ MovePicture(dx: double, dy: double) : void" style="text;strokeColor=none;fillColor=none;align=left;verticalAlign=top;spacingLeft=4;spacingRight=4;overflow=hidden;rotatable=0;points=[[0,0.5],[1,0.5]];portConstraint=eastwest;whiteSpace=wrap;html=1;" vertex="1" parent="Rg9wagiexUnOvc4vePpl-16">
          <mxGeometry y="110" width="400" height="26" as="geometry" />
        </mxCell>
        <mxCell id="Rg9wagiexUnOvc4vePpl-32" value="+ DeleteShape(id: string) : void" style="text;strokeColor=none;fillColor=none;align=left;verticalAlign=top;spacingLeft=4;spacingRight=4;overflow=hidden;rotatable=0;points=[[0,0.5],[1,0.5]];portConstraint=eastwest;whiteSpace=wrap;html=1;" vertex="1" parent="Rg9wagiexUnOvc4vePpl-16">
          <mxGeometry y="136" width="400" height="26" as="geometry" />
        </mxCell>
        <mxCell id="Rg9wagiexUnOvc4vePpl-33" value="+ List(out: ostream) : void" style="text;strokeColor=none;fillColor=none;align=left;verticalAlign=top;spacingLeft=4;spacingRight=4;overflow=hidden;rotatable=0;points=[[0,0.5],[1,0.5]];portConstraint=eastwest;whiteSpace=wrap;html=1;" vertex="1" parent="Rg9wagiexUnOvc4vePpl-16">
          <mxGeometry y="162" width="400" height="26" as="geometry" />
        </mxCell>
        <mxCell id="Rg9wagiexUnOvc4vePpl-35" value="+ ChangeColor(id: string, color: string) : void" style="text;strokeColor=none;fillColor=none;align=left;verticalAlign=top;spacingLeft=4;spacingRight=4;overflow=hidden;rotatable=0;points=[[0,0.5],[1,0.5]];portConstraint=eastwest;whiteSpace=wrap;html=1;" vertex="1" parent="Rg9wagiexUnOvc4vePpl-16">
          <mxGeometry y="188" width="400" height="26" as="geometry" />
        </mxCell>
        <mxCell id="Rg9wagiexUnOvc4vePpl-36" value="+ ChangeShape(id: string, type: String, params: string[]) : void" style="text;strokeColor=none;fillColor=none;align=left;verticalAlign=top;spacingLeft=4;spacingRight=4;overflow=hidden;rotatable=0;points=[[0,0.5],[1,0.5]];portConstraint=eastwest;whiteSpace=wrap;html=1;" vertex="1" parent="Rg9wagiexUnOvc4vePpl-16">
          <mxGeometry y="214" width="400" height="26" as="geometry" />
        </mxCell>
        <mxCell id="Rg9wagiexUnOvc4vePpl-37" value="+ DrawShape(id: string) : void" style="text;strokeColor=none;fillColor=none;align=left;verticalAlign=top;spacingLeft=4;spacingRight=4;overflow=hidden;rotatable=0;points=[[0,0.5],[1,0.5]];portConstraint=eastwest;whiteSpace=wrap;html=1;" vertex="1" parent="Rg9wagiexUnOvc4vePpl-16">
          <mxGeometry y="240" width="400" height="26" as="geometry" />
        </mxCell>
        <mxCell id="Rg9wagiexUnOvc4vePpl-38" value="+ DrawPicture() : void" style="text;strokeColor=none;fillColor=none;align=left;verticalAlign=top;spacingLeft=4;spacingRight=4;overflow=hidden;rotatable=0;points=[[0,0.5],[1,0.5]];portConstraint=eastwest;whiteSpace=wrap;html=1;" vertex="1" parent="Rg9wagiexUnOvc4vePpl-16">
          <mxGeometry y="266" width="400" height="26" as="geometry" />
        </mxCell>
        <mxCell id="Rg9wagiexUnOvc4vePpl-21" value="Shape" style="swimlane;fontStyle=1;align=center;verticalAlign=top;childLayout=stackLayout;horizontal=1;startSize=26;horizontalStack=0;resizeParent=1;resizeParentMax=0;resizeLast=0;collapsible=1;marginBottom=0;whiteSpace=wrap;html=1;" vertex="1" parent="1">
          <mxGeometry x="650" y="230" width="320" height="190" as="geometry" />
        </mxCell>
        <mxCell id="Rg9wagiexUnOvc4vePpl-22" value="- m_Color: Color" style="text;strokeColor=none;fillColor=none;align=left;verticalAlign=top;spacingLeft=4;spacingRight=4;overflow=hidden;rotatable=0;points=[[0,0.5],[1,0.5]];portConstraint=eastwest;whiteSpace=wrap;html=1;" vertex="1" parent="Rg9wagiexUnOvc4vePpl-21">
          <mxGeometry y="26" width="320" height="26" as="geometry" />
        </mxCell>
        <mxCell id="Rg9wagiexUnOvc4vePpl-53" value="- m_drawingStrategy: IDrawingStrategy" style="text;strokeColor=none;fillColor=none;align=left;verticalAlign=top;spacingLeft=4;spacingRight=4;overflow=hidden;rotatable=0;points=[[0,0.5],[1,0.5]];portConstraint=eastwest;whiteSpace=wrap;html=1;" vertex="1" parent="Rg9wagiexUnOvc4vePpl-21">
          <mxGeometry y="52" width="320" height="26" as="geometry" />
        </mxCell>
        <mxCell id="Rg9wagiexUnOvc4vePpl-23" value="" style="line;strokeWidth=1;fillColor=none;align=left;verticalAlign=middle;spacingTop=-1;spacingLeft=3;spacingRight=3;rotatable=0;labelPosition=right;points=[];portConstraint=eastwest;strokeColor=inherit;" vertex="1" parent="Rg9wagiexUnOvc4vePpl-21">
          <mxGeometry y="78" width="320" height="8" as="geometry" />
        </mxCell>
        <mxCell id="Rg9wagiexUnOvc4vePpl-57" value="+ Draw(canvas: ICanvas): void" style="text;strokeColor=none;fillColor=none;align=left;verticalAlign=top;spacingLeft=4;spacingRight=4;overflow=hidden;rotatable=0;points=[[0,0.5],[1,0.5]];portConstraint=eastwest;whiteSpace=wrap;html=1;" vertex="1" parent="Rg9wagiexUnOvc4vePpl-21">
          <mxGeometry y="86" width="320" height="26" as="geometry" />
        </mxCell>
        <mxCell id="Rg9wagiexUnOvc4vePpl-58" value="+ SetColor(color: Color): void" style="text;strokeColor=none;fillColor=none;align=left;verticalAlign=top;spacingLeft=4;spacingRight=4;overflow=hidden;rotatable=0;points=[[0,0.5],[1,0.5]];portConstraint=eastwest;whiteSpace=wrap;html=1;" vertex="1" parent="Rg9wagiexUnOvc4vePpl-21">
          <mxGeometry y="112" width="320" height="26" as="geometry" />
        </mxCell>
        <mxCell id="Rg9wagiexUnOvc4vePpl-59" value="+ GetColor(): Color" style="text;strokeColor=none;fillColor=none;align=left;verticalAlign=top;spacingLeft=4;spacingRight=4;overflow=hidden;rotatable=0;points=[[0,0.5],[1,0.5]];portConstraint=eastwest;whiteSpace=wrap;html=1;" vertex="1" parent="Rg9wagiexUnOvc4vePpl-21">
          <mxGeometry y="138" width="320" height="26" as="geometry" />
        </mxCell>
        <mxCell id="Rg9wagiexUnOvc4vePpl-24" value="+ SetDrawingStrategy(strategy: IDrawingStrategy): void" style="text;strokeColor=none;fillColor=none;align=left;verticalAlign=top;spacingLeft=4;spacingRight=4;overflow=hidden;rotatable=0;points=[[0,0.5],[1,0.5]];portConstraint=eastwest;whiteSpace=wrap;html=1;" vertex="1" parent="Rg9wagiexUnOvc4vePpl-21">
          <mxGeometry y="164" width="320" height="26" as="geometry" />
        </mxCell>
        <mxCell id="Rg9wagiexUnOvc4vePpl-25" value="" style="endArrow=diamondThin;endFill=1;endSize=24;html=1;rounded=0;" edge="1" parent="1" source="Rg9wagiexUnOvc4vePpl-21" target="Rg9wagiexUnOvc4vePpl-16">
          <mxGeometry width="160" relative="1" as="geometry">
            <mxPoint x="310" y="250" as="sourcePoint" />
            <mxPoint x="470" y="250" as="targetPoint" />
          </mxGeometry>
        </mxCell>
        <mxCell id="Rg9wagiexUnOvc4vePpl-41" value="gfx" style="shape=folder;fontStyle=1;spacingTop=10;tabWidth=40;tabHeight=14;tabPosition=left;html=1;whiteSpace=wrap;verticalAlign=top;" vertex="1" parent="1">
          <mxGeometry x="50" y="630" width="640" height="240" as="geometry" />
        </mxCell>
        <mxCell id="Rg9wagiexUnOvc4vePpl-42" value="&lt;&lt;interface&gt;&gt;&#xa;ICanvas" style="swimlane;fontStyle=3;align=center;verticalAlign=top;childLayout=stackLayout;horizontal=1;startSize=40;horizontalStack=0;resizeParent=1;resizeParentMax=0;resizeLast=0;collapsible=1;marginBottom=0;" vertex="1" parent="1">
          <mxGeometry x="70" y="680" width="370" height="170" as="geometry" />
        </mxCell>
        <mxCell id="Rg9wagiexUnOvc4vePpl-43" value="+ MoveTo(x: double, y: double)" style="text;strokeColor=none;fillColor=none;align=left;verticalAlign=top;spacingLeft=4;spacingRight=4;overflow=hidden;rotatable=0;points=[[0,0.5],[1,0.5]];portConstraint=eastwest;fontStyle=2" vertex="1" parent="Rg9wagiexUnOvc4vePpl-42">
          <mxGeometry y="40" width="370" height="26" as="geometry" />
        </mxCell>
        <mxCell id="Rg9wagiexUnOvc4vePpl-44" value="+ SetColor(color: Color)" style="text;strokeColor=none;fillColor=none;align=left;verticalAlign=top;spacingLeft=4;spacingRight=4;overflow=hidden;rotatable=0;points=[[0,0.5],[1,0.5]];portConstraint=eastwest;fontStyle=2" vertex="1" parent="Rg9wagiexUnOvc4vePpl-42">
          <mxGeometry y="66" width="370" height="26" as="geometry" />
        </mxCell>
        <mxCell id="Rg9wagiexUnOvc4vePpl-45" value="+ LineTo(x: double, y: double)" style="text;strokeColor=none;fillColor=none;align=left;verticalAlign=top;spacingLeft=4;spacingRight=4;overflow=hidden;rotatable=0;points=[[0,0.5],[1,0.5]];portConstraint=eastwest;fontStyle=2" vertex="1" parent="Rg9wagiexUnOvc4vePpl-42">
          <mxGeometry y="92" width="370" height="26" as="geometry" />
        </mxCell>
        <mxCell id="Rg9wagiexUnOvc4vePpl-46" value="+ DrawEpplise(cx: double, cy: double, rx: double, ry: double)" style="text;strokeColor=none;fillColor=none;align=left;verticalAlign=top;spacingLeft=4;spacingRight=4;overflow=hidden;rotatable=0;points=[[0,0.5],[1,0.5]];portConstraint=eastwest;fontStyle=2" vertex="1" parent="Rg9wagiexUnOvc4vePpl-42">
          <mxGeometry y="118" width="370" height="26" as="geometry" />
        </mxCell>
        <mxCell id="Rg9wagiexUnOvc4vePpl-47" value="+ DrawText(left: double, top: double, fontSize: double, text: string)" style="text;strokeColor=none;fillColor=none;align=left;verticalAlign=top;spacingLeft=4;spacingRight=4;overflow=hidden;rotatable=0;points=[[0,0.5],[1,0.5]];portConstraint=eastwest;fontStyle=2" vertex="1" parent="Rg9wagiexUnOvc4vePpl-42">
          <mxGeometry y="144" width="370" height="26" as="geometry" />
        </mxCell>
        <mxCell id="Rg9wagiexUnOvc4vePpl-49" value="Use" style="endArrow=open;endSize=12;dashed=1;html=1;rounded=0;" edge="1" parent="1" source="Rg9wagiexUnOvc4vePpl-42" target="Rg9wagiexUnOvc4vePpl-50">
          <mxGeometry width="160" relative="1" as="geometry">
            <mxPoint x="20" y="860" as="sourcePoint" />
            <mxPoint x="510" y="720" as="targetPoint" />
          </mxGeometry>
        </mxCell>
        <mxCell id="Rg9wagiexUnOvc4vePpl-50" value="Color" style="swimlane;fontStyle=1;align=center;verticalAlign=top;childLayout=stackLayout;horizontal=1;startSize=26;horizontalStack=0;resizeParent=1;resizeParentMax=0;resizeLast=0;collapsible=1;marginBottom=0;" vertex="1" parent="1">
          <mxGeometry x="510" y="680" width="160" height="52" as="geometry" />
        </mxCell>
        <mxCell id="Rg9wagiexUnOvc4vePpl-51" value="..." style="text;strokeColor=none;fillColor=none;align=left;verticalAlign=top;spacingLeft=4;spacingRight=4;overflow=hidden;rotatable=0;points=[[0,0.5],[1,0.5]];portConstraint=eastwest;" vertex="1" parent="Rg9wagiexUnOvc4vePpl-50">
          <mxGeometry y="26" width="160" height="26" as="geometry" />
        </mxCell>
        <mxCell id="Rg9wagiexUnOvc4vePpl-54" value="&lt;div&gt;&lt;i&gt;&amp;lt;&amp;lt;interface&amp;gt;&lt;/i&gt;&lt;/div&gt;&lt;i&gt;IDrawingStrategy&lt;/i&gt;" style="swimlane;fontStyle=1;align=center;verticalAlign=top;childLayout=stackLayout;horizontal=1;startSize=40;horizontalStack=0;resizeParent=1;resizeParentMax=0;resizeLast=0;collapsible=1;marginBottom=0;whiteSpace=wrap;html=1;" vertex="1" parent="1">
          <mxGeometry x="1080" y="276" width="230" height="66" as="geometry" />
        </mxCell>
        <mxCell id="Rg9wagiexUnOvc4vePpl-55" value="&lt;i&gt;+ Draw(canvas: ICanvas): void&lt;/i&gt;" style="text;strokeColor=none;fillColor=none;align=left;verticalAlign=top;spacingLeft=4;spacingRight=4;overflow=hidden;rotatable=0;points=[[0,0.5],[1,0.5]];portConstraint=eastwest;whiteSpace=wrap;html=1;" vertex="1" parent="Rg9wagiexUnOvc4vePpl-54">
          <mxGeometry y="40" width="230" height="26" as="geometry" />
        </mxCell>
        <mxCell id="Rg9wagiexUnOvc4vePpl-56" value="" style="endArrow=diamondThin;endFill=1;endSize=24;html=1;rounded=0;" edge="1" parent="1" source="Rg9wagiexUnOvc4vePpl-54" target="Rg9wagiexUnOvc4vePpl-21">
          <mxGeometry width="160" relative="1" as="geometry">
            <mxPoint x="870" y="300" as="sourcePoint" />
            <mxPoint x="1030" y="300" as="targetPoint" />
          </mxGeometry>
        </mxCell>
      </root>
    </mxGraphModel>
  </diagram>
</mxfile>
